<?xml version="1.0" encoding="UTF-8"?><svg xmlns="http://www.w3.org/2000/svg" xmlns:xlink="http://www.w3.org/1999/xlink" viewBox="0 0 900.06 900.06"><defs><style>.cls-1{fill:#f0f0f0;}.cls-2{fill:#00216c;}.cls-3{fill:#009033;}.cls-4{isolation:isolate;}.cls-5{fill:url(#radial-gradient);mix-blend-mode:multiply;opacity:.3;}.cls-6{clip-path:url(#clippath);}.cls-7{fill:#efd100;}.cls-8{fill:none;}</style><clipPath id="clippath"><circle class="cls-8" cx="450.03" cy="450.03" r="450.03"/></clipPath><radialGradient id="radial-gradient" cx="450.03" cy="450.03" fx="450.03" fy="450.03" r="450.03" gradientUnits="userSpaceOnUse"><stop offset="0" stop-color="#fff"/><stop offset=".36" stop-color="#fdfdfd"/><stop offset=".48" stop-color="#f6f6f6"/><stop offset=".58" stop-color="#eaeaea"/><stop offset=".65" stop-color="#d9d9d9"/><stop offset=".71" stop-color="#c3c3c3"/><stop offset=".77" stop-color="#a8a8a8"/><stop offset=".82" stop-color="#878787"/><stop offset=".87" stop-color="#626262"/><stop offset=".91" stop-color="#373737"/><stop offset=".95" stop-color="#090909"/><stop offset=".96" stop-color="#000"/></radialGradient></defs><g class="cls-4"><g id="Layer_2"><g id="Layer_1-2"><g id="Brazil"><g class="cls-6"><g><rect class="cls-3" x="-192.87" width="1285.79" height="900.06"/><polygon class="cls-7" points="450.03 107.84 -83.15 449.14 450.03 790.44 983.2 449.14 450.03 107.84"/><path class="cls-2" d="m676.18,450.03c0,11.56-.86,22.93-2.54,34.01-1.76,11.71-4.42,23.08-7.93,34.08-28.84,91.62-114.52,158.07-215.68,158.07-124.88,0-226.12-101.27-226.12-226.16,0-19.38,2.43-38.2,7.03-56.16,3.18-12.5,7.44-24.62,12.61-36.18,35.32-78.86,114.48-133.82,206.48-133.82,124.92,0,226.16,101.27,226.16,226.16Z"/><path class="cls-1" d="m673.63,484.03c-1.76,11.71-4.42,23.08-7.93,34.08-117.17-106.62-276.59-151.86-434.76-124.25,3.18-12.5,7.44-24.62,12.61-36.18,154.44-23.16,316.02,22.52,430.09,126.34Z"/><g><polygon class="cls-1" points="519.75 366.3 521.75 372.46 528.23 372.46 522.98 376.27 524.99 382.43 519.75 378.62 514.5 382.43 516.51 376.27 511.27 372.46 517.74 372.46 519.75 366.3"/><polygon class="cls-1" points="510.91 432.2 512.37 436.7 517.1 436.7 513.27 439.48 514.73 443.98 510.91 441.2 507.08 443.98 508.54 439.48 504.72 436.7 509.45 436.7 510.91 432.2"/><polygon class="cls-1" points="266.35 399.42 268.55 406.19 275.67 406.19 269.91 410.37 272.11 417.14 266.35 412.96 260.59 417.14 262.79 410.37 257.03 406.19 264.15 406.19 266.35 399.42"/><polygon class="cls-1" points="364.21 450.27 366.12 456.14 372.3 456.14 367.3 459.78 369.21 465.65 364.21 462.02 359.21 465.65 361.12 459.78 356.12 456.14 362.3 456.14 364.21 450.27"/><polygon class="cls-1" points="308 486.13 308.98 489.15 312.15 489.15 309.59 491.01 310.57 494.03 308 492.17 305.43 494.03 306.41 491.01 303.85 489.15 307.02 489.15 308 486.13"/><polygon class="cls-1" points="285.99 494.49 288.15 501.14 295.14 501.14 289.49 505.24 291.65 511.89 285.99 507.78 280.34 511.89 282.5 505.24 276.85 501.14 283.83 501.14 285.99 494.49"/><polygon class="cls-1" points="258.8 516.64 260.45 521.74 265.81 521.74 261.47 524.89 263.13 529.98 258.8 526.83 254.46 529.98 256.12 524.89 251.79 521.74 257.14 521.74 258.8 516.64"/><polygon class="cls-1" points="332.9 518.81 334.59 524.01 340.06 524.01 335.63 527.22 337.32 532.43 332.9 529.21 328.47 532.43 330.16 527.22 325.74 524.01 331.21 524.01 332.9 518.81"/><polygon class="cls-1" points="326.14 543.07 327.51 547.31 331.97 547.31 328.36 549.93 329.74 554.16 326.14 551.54 322.54 554.16 323.91 549.93 320.31 547.31 324.76 547.31 326.14 543.07"/><polygon class="cls-1" points="359.61 559.74 361.72 566.24 368.57 566.24 363.03 570.26 365.15 576.77 359.61 572.75 354.08 576.77 356.19 570.26 350.66 566.24 357.5 566.24 359.61 559.74"/><polygon class="cls-1" points="427.22 499.4 428.71 504 433.54 504 429.63 506.84 431.13 511.43 427.22 508.59 423.31 511.43 424.8 506.84 420.89 504 425.72 504 427.22 499.4"/><polygon class="cls-1" points="438.09 517.52 439.39 521.52 443.6 521.52 440.19 524 441.49 528 438.09 525.53 434.68 528 435.98 524 432.57 521.52 436.79 521.52 438.09 517.52"/><polygon class="cls-1" points="450.03 539.53 452.45 546.99 460.29 546.99 453.95 551.6 456.37 559.06 450.03 554.45 443.68 559.06 446.11 551.6 439.76 546.99 447.6 546.99 450.03 539.53"/><polygon class="cls-1" points="449.62 477.75 451.47 483.43 457.44 483.43 452.61 486.94 454.45 492.62 449.62 489.11 444.79 492.62 446.63 486.94 441.8 483.43 447.77 483.43 449.62 477.75"/><polygon class="cls-1" points="476 498.26 477.84 503.92 483.79 503.92 478.98 507.42 480.81 513.08 476 509.58 471.19 513.08 473.03 507.42 468.21 503.92 474.16 503.92 476 498.26"/><polygon class="cls-1" points="450.03 622.29 450.85 624.81 453.5 624.81 451.35 626.36 452.17 628.88 450.03 627.33 447.88 628.88 448.7 626.36 446.56 624.81 449.21 624.81 450.03 622.29"/><polygon class="cls-1" points="517.23 592.3 519.19 598.34 525.53 598.34 520.4 602.06 522.36 608.1 517.23 604.37 512.09 608.1 514.05 602.06 508.92 598.34 515.27 598.34 517.23 592.3"/><polygon class="cls-1" points="499.46 569.35 500.97 573.98 505.83 573.98 501.9 576.84 503.4 581.46 499.46 578.6 495.53 581.46 497.03 576.84 493.1 573.98 497.96 573.98 499.46 569.35"/><polygon class="cls-1" points="536.78 576.01 538.1 580.07 542.36 580.07 538.91 582.57 540.23 586.62 536.78 584.12 533.33 586.62 534.65 582.57 531.2 580.07 535.46 580.07 536.78 576.01"/><polygon class="cls-1" points="562.7 588.33 564.49 593.86 570.3 593.86 565.6 597.27 567.39 602.8 562.7 599.38 558 602.8 559.79 597.27 555.09 593.86 560.9 593.86 562.7 588.33"/><polygon class="cls-1" points="561.5 567.6 562.88 571.83 567.33 571.83 563.73 574.45 565.1 578.68 561.5 576.07 557.9 578.68 559.28 574.45 555.68 571.83 560.13 571.83 561.5 567.6"/><polygon class="cls-1" points="584.9 571.15 586.43 575.86 591.38 575.86 587.38 578.77 588.91 583.48 584.9 580.57 580.89 583.48 582.42 578.77 578.42 575.86 583.37 575.86 584.9 571.15"/><polygon class="cls-1" points="602.93 559.98 604.64 565.24 610.18 565.24 605.7 568.5 607.41 573.77 602.93 570.51 598.45 573.77 600.16 568.5 595.68 565.24 601.22 565.24 602.93 559.98"/><polygon class="cls-1" points="616.45 540.55 618.3 546.25 624.3 546.25 619.45 549.78 621.3 555.48 616.45 551.96 611.6 555.48 613.45 549.78 608.6 546.25 614.6 546.25 616.45 540.55"/><polygon class="cls-1" points="607.5 518.3 609.77 525.27 617.1 525.27 611.17 529.58 613.43 536.55 607.5 532.24 601.57 536.55 603.84 529.58 597.91 525.27 605.24 525.27 607.5 518.3"/><polygon class="cls-1" points="638.32 524.44 639.82 529.05 644.66 529.05 640.74 531.89 642.24 536.5 638.32 533.65 634.4 536.5 635.9 531.89 631.98 529.05 636.83 529.05 638.32 524.44"/><polygon class="cls-1" points="562.17 611.6 563.73 616.41 568.79 616.41 564.7 619.39 566.26 624.2 562.17 621.23 558.07 624.2 559.63 619.39 555.54 616.41 560.6 616.41 562.17 611.6"/></g><g><path class="cls-3" d="m272.06,372.05c.68,6.01-3.62,11.16-9.98,11.88-6.36.72-11.7-3.31-12.39-9.35-.69-6.07,3.62-11.1,9.99-11.83,6.36-.72,11.69,3.26,12.38,9.29Zm-17.55,1.99c.41,3.66,3.68,6.18,7.16,5.78,3.48-.39,5.98-3.57,5.57-7.23-.41-3.66-3.55-6.13-7.04-5.74-3.51.4-6.11,3.52-5.69,7.18Z"/><path class="cls-3" d="m291.13,375.24l-.45.03-4.36.26.35,5.97-4.72.28-1.24-20.9,9.08-.54c5.47-.33,8.72,2.12,9,6.75.19,3.22-1.04,5.63-3.51,6.98l4.86,6.63-5.35.31-3.67-5.77Zm-.68-3.92c2.6-.15,4.02-1.44,3.88-3.83-.14-2.33-1.7-3.4-4.3-3.25l-4.36.26.42,7.08,4.36-.26Z"/><path class="cls-3" d="m317.97,359.39c6.49-.05,11.04,4.19,11.09,10.39.05,6.16-4.5,10.5-11.11,10.56l-8.71.07-.16-20.94,8.88-.07Zm-4.03,16.99l4.28-.03c3.5-.03,6.05-2.68,6.02-6.51-.03-3.86-2.74-6.5-6.33-6.47l-4.07.03.1,12.98Z"/><path class="cls-3" d="m343.39,363.69l-.2,4.54,10.11.45-.17,3.92-10.11-.44-.2,4.64,11.55.51-.18,3.92-16.27-.71.92-20.94,15.94.7-.17,3.92-11.22-.49Z"/><path class="cls-3" d="m381.95,383.71l1.42-14.07-6.76,11.38-3.07-.31-4.33-12.51-1.43,14.07-4.26-.43,2.12-20.86,5.27.54,4.79,13.37,7.34-12.14,5.24.53-2.12,20.86-4.23-.43Z"/><path class="cls-3" d="m416.8,371.61l-.82,4.48,9.96,1.83-.71,3.86-9.96-1.83-.84,4.57,11.37,2.09-.71,3.86-16.02-2.95,3.8-20.62,15.7,2.89-.71,3.86-11.05-2.04Z"/><path class="cls-3" d="m460.64,377.28c5.16,1.35,7.44,4.67,6.26,9.16-1.24,4.72-4.91,6.66-10.06,5.31l-4.02-1.06-1.52,5.79-4.57-1.2,5.32-20.26,8.59,2.25Zm-6.81,9.59l3.79,1c2.55.66,4.3-.11,4.91-2.43.59-2.26-.56-3.77-3.11-4.44l-3.79-.99-1.8,6.86Z"/><path class="cls-3" d="m482.7,399.29l-.43-.14-4.17-1.33-1.82,5.71-4.51-1.44,6.35-19.98,8.68,2.76c5.22,1.66,7.39,5.11,5.98,9.54-.98,3.08-3,4.89-5.79,5.26l2.16,7.95-5.11-1.62-1.35-6.72Zm.77-3.9c2.48.79,4.27.1,5-2.18.71-2.23-.37-3.8-2.85-4.59l-4.17-1.32-2.15,6.76,4.17,1.33Z"/><path class="cls-3" d="m521.12,408.28c-2.14,5.65-8.32,8.27-14.31,6-5.98-2.27-8.88-8.3-6.73-13.98,2.17-5.71,8.3-8.21,14.29-5.94,5.99,2.27,8.9,8.24,6.75,13.92Zm-16.5-6.26c-1.3,3.44.45,7.18,3.72,8.42,3.27,1.24,6.95-.43,8.26-3.88,1.31-3.44-.35-7.08-3.62-8.32-3.3-1.25-7.04.34-8.35,3.78Z"/><path class="cls-3" d="m545.82,418.98l-3.27,7.36c-2.68.58-6.22.21-8.87-.96-5.79-2.58-8.33-8.75-5.86-14.3,2.46-5.52,8.8-7.71,14.76-5.06,2.85,1.26,5.26,3.65,6.44,6.2l-3.81,2.01c-.84-1.94-2.44-3.64-4.3-4.47-3.39-1.51-7.17-.08-8.67,3.28-1.51,3.39,0,7.17,3.38,8.68,1.15.51,2.7.71,4.21.63l2.24-5.03,3.74,1.66Z"/><path class="cls-3" d="m561.55,431.87l-.4-.2-3.89-1.99-2.73,5.33-4.21-2.16,9.55-18.66,8.1,4.15c4.88,2.5,6.45,6.26,4.34,10.39-1.47,2.88-3.76,4.33-6.58,4.24l.82,8.19-4.77-2.44-.23-6.85Zm1.4-3.72c2.32,1.19,4.2.8,5.29-1.33,1.06-2.08.26-3.8-2.06-4.99l-3.89-1.99-3.23,6.32,3.89,1.99Z"/><path class="cls-3" d="m587.14,433.17l-2.27,3.94,8.76,5.06-1.96,3.39-8.76-5.06-2.32,4.02,10,5.77-1.96,3.39-14.1-8.14,10.47-18.14,13.81,7.97-1.96,3.39-9.72-5.61Z"/><path class="cls-3" d="m620.01,451.28l-3.66,2.3c-1.14-2.31-2.9-4.44-4.3-5.35-1.33-.87-2.54-.97-3.16-.02-2.1,3.24,8.44,7.5,4.32,13.81-2.23,3.44-6.42,3.36-10.31.84-2.89-1.87-5.06-4.84-5.96-7.81l3.68-2.21c.77,2.78,2.66,5.47,4.52,6.67,1.63,1.06,3,1.09,3.7.01,2.15-3.32-8.48-7.45-4.44-13.68,2.06-3.19,6.11-3.43,10.18-.79,2.46,1.6,4.44,3.94,5.44,6.24Z"/><path class="cls-3" d="m640.97,466.04l-3.77,2.12c-1.03-2.36-2.68-4.58-4.04-5.56-1.29-.93-2.5-1.09-3.16-.17-2.25,3.13,8.07,7.9,3.65,14.01-2.39,3.33-6.58,3.05-10.35.34-2.79-2.01-4.83-5.09-5.58-8.1l3.79-2.04c.63,2.81,2.4,5.59,4.2,6.88,1.58,1.14,2.95,1.23,3.7.19,2.31-3.21-8.11-7.86-3.78-13.89,2.22-3.09,6.27-3.13,10.21-.3,2.38,1.71,4.24,4.15,5.14,6.5Z"/><path class="cls-3" d="m660.11,491.76c-3.78,4.72-10.47,5.3-15.46,1.29-5-4.01-5.9-10.64-2.1-15.37,3.82-4.76,10.43-5.26,15.43-1.25,4.99,4.01,5.93,10.59,2.13,15.33Zm-13.77-11.05c-2.31,2.87-1.79,6.97.94,9.16,2.73,2.19,6.74,1.73,9.05-1.14,2.3-2.87,1.85-6.84-.89-9.04-2.75-2.21-6.8-1.85-9.1,1.02Z"/></g></g><circle class="cls-5" cx="450.03" cy="450.03" r="450.03"/></g></g></g></g></g></svg>